HIERARCHY
ROOT Hips
{
	OFFSET 0.00 0.00 0.00
	CHANNELS 6 Xposition Yposition Zposition Xrotation Yrotation Zrotation
	JOINT Spine
	{
		OFFSET 0.00000 1.70439 2.55658
		CHANNELS 3 Xrotation Yrotation Zrotation
		JOINT Spine1
		{
			OFFSET 0.00000 0.59193 3.35699
			CHANNELS 3 Xrotation Yrotation Zrotation
			JOINT Spine2
			{
				OFFSET 0.00000 0.29710 3.39581
				CHANNELS 3 Xrotation Yrotation Zrotation
				JOINT Spine3
				{
					OFFSET 0.00000 0.00000 3.40878
					CHANNELS 3 Xrotation Yrotation Zrotation
					JOINT Neck
					{
						OFFSET 0.00000 -1.27828 8.94804
						CHANNELS 3 Xrotation Yrotation Zrotation
						JOINT Head
						{
							OFFSET 0.00000 -0.81390 4.61586
							CHANNELS 3 Xrotation Yrotation Zrotation
							End Site
							{
								OFFSET 0.00000 0.00001 5.51796
							}
						}
					}
					JOINT RightShoulder
					{
						OFFSET -1.18875 -1.98124 6.41925
						CHANNELS 3 Xrotation Yrotation Zrotation
						JOINT RightArm
						{
							OFFSET -5.90412 0.00000 0.00000
							CHANNELS 3 Xrotation Yrotation Zrotation
							JOINT RightForeArm
							{
								OFFSET -11.94674 0.00000 0.00000
								CHANNELS 3 Xrotation Yrotation Zrotation
								JOINT RightHand
								{
									OFFSET -10.17720 0.00000 0.00000
									CHANNELS 3 Xrotation Yrotation Zrotation
									JOINT RightHandEnd
									{
										OFFSET -2.84518 0.00000 0.00000
										CHANNELS 3 Xrotation Yrotation Zrotation
										End Site
										{
											OFFSET -2.84518 0.00000 0.00000
										}
									}
									JOINT RightHandThumb1
									{
										OFFSET -1.13807 -1.89679 -0.75871
										CHANNELS 3 Yrotation Xrotation Zrotation
										End Site
										{
											OFFSET -2.74823 -0.73639 0.00000
										}
									}
								}
							}
						}
					}
					JOINT LeftShoulder
					{
						OFFSET 1.18875 -1.98124 6.41925
						CHANNELS 3 Xrotation Yrotation Zrotation
						JOINT LeftArm
						{
							OFFSET 5.90412 0.00000 0.00000
							CHANNELS 3 Xrotation Yrotation Zrotation
							JOINT LeftForeArm
							{
								OFFSET 11.94674 0.00000 0.00000
								CHANNELS 3 Xrotation Yrotation Zrotation
								JOINT LeftHand
								{
									OFFSET 10.17720 0.00000 0.00000
									CHANNELS 3 Xrotation Yrotation Zrotation
									JOINT LeftHandEnd
									{
										OFFSET 2.84518 0.00000 0.00000
										CHANNELS 3 Xrotation Yrotation Zrotation
										End Site
										{
											OFFSET 2.84518 0.00000 0.00000
										}
									}
									JOINT LeftHandThumb1
									{
										OFFSET 1.13807 -1.89679 -0.75871
										CHANNELS 3 Yrotation Xrotation Zrotation
										End Site
										{
											OFFSET 2.74823 -0.73639 0.00000
										}
									}
								}
							}
						}
					}
				}
			}
		}
	}
	JOINT RightUpLeg
	{
		OFFSET -3.52662 0.00000 -1.03025
		CHANNELS 3 Xrotation Yrotation Zrotation
		JOINT RightLeg
		{
			OFFSET 0.00001 0.00000 -17.80159
			CHANNELS 3 Xrotation Yrotation Zrotation
			JOINT RightFoot
			{
				OFFSET 0.00001 0.00000 -16.85992
				CHANNELS 3 Xrotation Yrotation Zrotation
				JOINT RightToeBase
				{
					OFFSET 0.00000 -5.42953 -1.97619
					CHANNELS 3 Xrotation Yrotation Zrotation
					End Site
					{
						OFFSET 0.00000 -2.85300 -0.00000
					}
				}
			}
		}
	}
	JOINT LeftUpLeg
	{
		OFFSET 3.52662 0.00000 -1.03025
		CHANNELS 3 Xrotation Yrotation Zrotation
		JOINT LeftLeg
		{
			OFFSET 0.00001 0.00000 -17.80159
			CHANNELS 3 Xrotation Yrotation Zrotation
			JOINT LeftFoot
			{
				OFFSET 0.00001 0.00000 -16.85992
				CHANNELS 3 Xrotation Yrotation Zrotation
				JOINT LeftToeBase
				{
					OFFSET 0.00000 -5.42953 -1.97619
					CHANNELS 3 Xrotation Yrotation Zrotation
					End Site
					{
						OFFSET 0.00000 -2.85300 -0.00000
					}
				}
			}
		}
	}
}
MOTION
Frames: 15
Frame Time: 0.008342
 0.3049 -9.6470 38.0646 4.5647 1.3299 -175.0890 1.4860 0.0136 -0.6069 0.7459 0.0794 -0.1225 0.2400 -1.5010 -1.3480 -0.4191 -0.0564 0.2012 2.8871 -0.1179 -1.9077 -2.8815 1.2035 -1.2109 -3.5971 13.7349 1.1975 -3.0946 6.5685 -0.9273 0.0000 0.0000 14.1710 -1.5537 26.6991 -1.0984 -0.0000 -0.0000 0.0000 -0.0000 0.0000 0.0000 -10.0975 -9.7841 -6.2886 6.0231 2.9597 0.7499 -0.0000 -0.0000 -14.4145 -4.6380 -21.8835 2.2578 -0.0000 0.0000 0.0000 0.0000 -0.0000 -0.0000 3.0666 4.8084 -34.5748 15.0901 0.0000 0.0000 -14.5160 -1.9587 2.8031 6.8698 0.0000 0.0000 2.5175 -2.7598 6.8426 12.8149 0.0000 0.0000 -10.0660 9.7892 5.5376 -1.4877 0.0000 -0.0000
 0.3038 -9.6453 38.0651 4.5674 1.3219 -175.1136 1.4826 0.0086 -0.6042 0.7440 0.0755 -0.1216 0.2581 -1.4957 -1.3300 -0.4135 -0.0548 0.2021 2.8897 -0.1015 -1.9021 -2.8828 1.1940 -1.2287 -3.5845 13.7528 1.2050 -3.0439 6.5487 -0.9234 0.0000 0.0000 14.1237 -1.5412 26.6528 -1.1137 0.0000 0.0000 0.0000 0.0000 -0.0000 0.0000 -10.0917 -9.7708 -6.2685 6.0466 2.9685 0.7395 -0.0000 -0.0000 -14.4118 -4.6468 -21.8878 2.2384 -0.0000 -0.0000 0.0000 0.0000 0.0000 0.0000 3.0733 4.8044 -34.5719 15.0791 0.0000 0.0000 -14.5002 -1.9830 2.8248 6.8663 0.0000 0.0000 2.5301 -2.7656 6.8811 12.8071 0.0000 0.0000 -10.0648 9.7894 5.5333 -1.4906 0.0000 -0.0000
 0.3028 -9.6430 38.0659 4.5750 1.3096 -175.1465 1.4834 0.0013 -0.6007 0.7410 0.0692 -0.1208 0.2796 -1.4880 -1.3067 -0.4057 -0.0528 0.2041 2.8943 -0.0817 -1.8949 -2.8816 1.1828 -1.2495 -3.5702 13.7743 1.2158 -2.9844 6.5223 -0.9173 0.0000 0.0000 14.0642 -1.5274 26.5878 -1.1337 0.0000 -0.0000 0.0000 0.0000 -0.0000 0.0000 -10.0834 -9.7552 -6.2423 6.0745 2.9802 0.7272 -0.0000 -0.0000 -14.4079 -4.6552 -21.8912 2.2172 0.0000 0.0000 0.0000 0.0000 -0.0000 0.0000 3.0882 4.7940 -34.5664 15.0581 0.0000 0.0000 -14.4776 -2.0095 2.8515 6.8614 0.0000 0.0000 2.5518 -2.7759 6.9336 12.7947 0.0000 0.0000 -10.0629 9.7911 5.5264 -1.4943 0.0000 -0.0000
 0.3015 -9.6400 38.0670 4.5873 1.2974 -175.1880 1.4890 -0.0058 -0.5968 0.7373 0.0649 -0.1187 0.3042 -1.4809 -1.2802 -0.3965 -0.0511 0.2079 2.9021 -0.0574 -1.8849 -2.8768 1.1699 -1.2722 -3.5508 13.8007 1.2299 -2.9236 6.4883 -0.9089 0.0000 0.0000 13.9946 -1.5168 26.5040 -1.1575 -0.0000 -0.0000 -0.0000 -0.0000 0.0000 0.0000 -10.0720 -9.7369 -6.2090 6.1058 2.9948 0.7130 -0.0000 -0.0000 -14.4029 -4.6604 -21.8937 2.1949 0.0000 -0.0000 -0.0000 0.0000 0.0000 0.0000 3.1109 4.7831 -34.5598 15.0301 0.0000 0.0000 -14.4509 -2.0373 2.8849 6.8551 0.0000 0.0000 2.5846 -2.7850 6.9966 12.7744 0.0000 0.0000 -10.0580 9.7932 5.5208 -1.4984 0.0000 -0.0000
 0.3004 -9.6371 38.0681 4.5888 1.2811 -175.2367 1.4832 -0.0120 -0.5927 0.7328 0.0547 -0.1187 0.3331 -1.4695 -1.2442 -0.3858 -0.0492 0.2092 2.9130 -0.0312 -1.8719 -2.8706 1.1566 -1.2960 -3.5349 13.8253 1.2489 -2.8563 6.4518 -0.8978 0.0000 0.0000 13.9169 -1.5101 26.4059 -1.1821 -0.0000 0.0000 -0.0000 0.0000 -0.0000 0.0000 -10.0599 -9.7149 -6.1684 6.1400 3.0097 0.6975 -0.0000 -0.0000 -14.3978 -4.6613 -21.8957 2.1737 -0.0000 -0.0000 -0.0000 0.0000 -0.0000 -0.0000 3.1228 4.7676 -34.5479 14.9964 0.0000 0.0000 -14.4196 -2.0635 2.9194 6.8481 0.0000 0.0000 2.6068 -2.7969 7.0672 12.7539 0.0000 0.0000 -10.0537 9.7949 5.5177 -1.5025 0.0000 -0.0000
 0.2992 -9.6335 38.0696 4.5986 1.2654 -175.2918 1.4874 -0.0193 -0.5899 0.7269 0.0510 -0.1128 0.3624 -1.4619 -1.2125 -0.3742 -0.0475 0.2145 2.9284 -0.0023 -1.8569 -2.8588 1.1424 -1.3200 -3.5151 13.8529 1.2716 -2.7930 6.4079 -0.8862 0.0000 0.0000 13.8364 -1.5086 26.2930 -1.2069 -0.0000 -0.0000 -0.0000 -0.0000 0.0000 -0.0000 -10.0464 -9.6917 -6.1226 6.1766 3.0266 0.6812 -0.0000 -0.0000 -14.3924 -4.6620 -21.8957 2.1523 0.0000 -0.0000 0.0000 0.0000 -0.0000 0.0000 3.1474 4.7506 -34.5399 14.9533 0.0000 0.0000 -14.3840 -2.0893 2.9625 6.8402 0.0000 0.0000 2.6435 -2.8077 7.1451 12.7251 0.0000 0.0000 -10.0462 9.7960 5.5160 -1.5060 0.0000 -0.0000
 0.2981 -9.6303 38.0711 4.5959 1.2476 -175.3524 1.4793 -0.0237 -0.5839 0.7220 0.0401 -0.1164 0.3924 -1.4483 -1.1676 -0.3618 -0.0464 0.2165 2.9482 0.0262 -1.8392 -2.8456 1.1292 -1.3429 -3.4965 13.8753 1.2956 -2.7323 6.3639 -0.8698 0.0000 0.0000 13.7546 -1.5122 26.1720 -1.2285 0.0000 -0.0000 -0.0000 -0.0000 -0.0000 -0.0000 -10.0331 -9.6673 -6.0712 6.2116 3.0439 0.6651 -0.0000 -0.0000 -14.3890 -4.6584 -21.8956 2.1337 0.0000 -0.0000 -0.0000 0.0000 0.0000 0.0000 3.1585 4.7318 -34.5282 14.9074 0.0000 0.0000 -14.3460 -2.1120 3.0063 6.8325 0.0000 0.0000 2.6677 -2.8188 7.2285 12.6954 0.0000 0.0000 -10.0379 9.7952 5.5162 -1.5085 0.0000 -0.0000
 0.2972 -9.6267 38.0728 4.5995 1.2297 -175.4147 1.4802 -0.0299 -0.5817 0.7151 0.0367 -0.1108 0.4210 -1.4398 -1.1318 -0.3494 -0.0458 0.2219 2.9733 0.0556 -1.8193 -2.8266 1.1154 -1.3644 -3.4775 13.8975 1.3231 -2.6779 6.3154 -0.8534 0.0000 0.0000 13.6779 -1.5238 26.0463 -1.2450 -0.0000 0.0000 0.0000 0.0000 0.0000 0.0000 -10.0204 -9.6431 -6.0171 6.2460 3.0621 0.6513 -0.0000 -0.0000 -14.3877 -4.6516 -21.8930 2.1174 0.0000 -0.0000 -0.0000 0.0000 0.0000 0.0000 3.1806 4.7104 -34.5263 14.8524 0.0000 0.0000 -14.3042 -2.1338 3.0597 6.8237 0.0000 0.0000 2.7013 -2.8300 7.3126 12.6613 0.0000 0.0000 -10.0279 9.7923 5.5187 -1.5097 0.0000 -0.0000
 0.2964 -9.6236 38.0746 4.5924 1.2119 -175.4792 1.4718 -0.0323 -0.5763 0.7098 0.0281 -0.1137 0.4476 -1.4272 -1.0874 -0.3373 -0.0459 0.2243 3.0031 0.0834 -1.7979 -2.8048 1.1028 -1.3830 -3.4604 13.9126 1.3517 -2.6288 6.2690 -0.8350 0.0000 0.0000 13.6087 -1.5413 25.9217 -1.2546 0.0000 0.0000 0.0000 0.0000 0.0000 0.0000 -10.0101 -9.6193 -5.9610 6.2771 3.0799 0.6400 -0.0000 -0.0000 -14.3897 -4.6417 -21.8910 2.1039 -0.0000 0.0000 0.0000 -0.0000 -0.0000 0.0000 3.1908 4.6898 -34.5263 14.7972 0.0000 0.0000 -14.2619 -2.1528 3.1157 6.8160 0.0000 0.0000 2.7234 -2.8397 7.3969 12.6270 0.0000 0.0000 -10.0169 9.7863 5.5235 -1.5090 0.0000 -0.0000
 0.2957 -9.6207 38.0765 4.5848 1.1935 -175.5420 1.4656 -0.0359 -0.5734 0.7038 0.0237 -0.1124 0.4711 -1.4175 -1.0493 -0.3260 -0.0464 0.2281 3.0378 0.1099 -1.7750 -2.7786 1.0906 -1.3987 -3.4454 13.9232 1.3814 -2.5850 6.2226 -0.8160 0.0000 0.0000 13.5500 -1.5635 25.8033 -1.2560 0.0000 0.0000 0.0000 0.0000 0.0000 0.0000 -10.0025 -9.5969 -5.9046 6.3042 3.0971 0.6326 -0.0000 -0.0000 -14.3959 -4.6310 -21.8873 2.0936 0.0000 -0.0000 -0.0000 0.0000 0.0000 0.0000 3.2027 4.6677 -34.5372 14.7376 0.0000 0.0000 -14.2175 -2.1713 3.1795 6.8086 0.0000 0.0000 2.7441 -2.8498 7.4781 12.5931 0.0000 0.0000 -10.0055 9.7774 5.5294 -1.5061 0.0000 -0.0000
 0.2951 -9.6181 38.0785 4.5754 1.1754 -175.6024 1.4602 -0.0390 -0.5706 0.6982 0.0198 -0.1118 0.4906 -1.4084 -1.0134 -0.3158 -0.0474 0.2315 3.0770 0.1348 -1.7513 -2.7489 1.0788 -1.4113 -3.4326 13.9280 1.4109 -2.5459 6.1785 -0.7964 0.0000 0.0000 13.5040 -1.5914 25.6951 -1.2465 0.0000 -0.0000 -0.0000 -0.0000 -0.0000 0.0000 -9.9988 -9.5764 -5.8496 6.3270 3.1135 0.6292 -0.0000 -0.0000 -14.4059 -4.6190 -21.8837 2.0860 0.0000 -0.0000 -0.0000 0.0000 0.0000 0.0000 3.2139 4.6460 -34.5592 14.6768 0.0000 0.0000 -14.1726 -2.1899 3.2506 6.8025 0.0000 0.0000 2.7617 -2.8595 7.5557 12.5603 0.0000 0.0000 -9.9936 9.7656 5.5354 -1.5014 0.0000 -0.0000
 0.2945 -9.6159 38.0805 4.5645 1.1572 -175.6584 1.4558 -0.0423 -0.5694 0.6930 0.0171 -0.1104 0.5063 -1.4003 -0.9809 -0.3070 -0.0490 0.2346 3.1199 0.1587 -1.7277 -2.7160 1.0672 -1.4208 -3.4218 13.9271 1.4393 -2.5095 6.1377 -0.7772 0.0000 0.0000 13.4720 -1.6229 25.6005 -1.2273 -0.0000 0.0000 -0.0000 -0.0000 0.0000 -0.0000 -9.9995 -9.5580 -5.7974 6.3462 3.1290 0.6299 -0.0000 -0.0000 -14.4193 -4.6082 -21.8805 2.0806 -0.0000 -0.0000 0.0000 0.0000 0.0000 0.0000 3.2246 4.6246 -34.5942 14.6155 0.0000 0.0000 -14.1271 -2.2095 3.3297 6.7975 0.0000 0.0000 2.7749 -2.8693 7.6272 12.5307 0.0000 0.0000 -9.9822 9.7512 5.5418 -1.4949 0.0000 -0.0000
 0.2939 -9.6142 38.0825 4.5521 1.1392 -175.7098 1.4522 -0.0460 -0.5684 0.6886 0.0149 -0.1093 0.5179 -1.3933 -0.9514 -0.2992 -0.0507 0.2374 3.1652 0.1821 -1.7047 -2.6802 1.0553 -1.4277 -3.4133 13.9208 1.4657 -2.4751 6.1013 -0.7591 0.0000 0.0000 13.4546 -1.6558 25.5210 -1.1977 -0.0000 -0.0000 -0.0000 -0.0000 0.0000 -0.0000 -10.0047 -9.5413 -5.7487 6.3608 3.1433 0.6341 -0.0000 -0.0000 -14.4353 -4.5988 -21.8780 2.0758 0.0000 0.0000 0.0000 0.0000 -0.0000 -0.0000 3.2338 4.6044 -34.6415 14.5558 0.0000 0.0000 -14.0820 -2.2312 3.4160 6.7938 0.0000 0.0000 2.7834 -2.8793 7.6935 12.5048 0.0000 0.0000 -9.9714 9.7351 5.5469 -1.4868 0.0000 -0.0000
 0.2931 -9.6129 38.0845 4.5382 1.1210 -175.7558 1.4490 -0.0510 -0.5683 0.6848 0.0132 -0.1081 0.5264 -1.3871 -0.9251 -0.2929 -0.0527 0.2398 3.2123 0.2049 -1.6828 -2.6427 1.0432 -1.4323 -3.4070 13.9096 1.4897 -2.4398 6.0697 -0.7419 0.0000 0.0000 13.4497 -1.6893 25.4582 -1.1585 -0.0000 0.0000 -0.0000 -0.0000 -0.0000 -0.0000 -10.0139 -9.5265 -5.7045 6.3721 3.1560 0.6421 -0.0000 -0.0000 -14.4533 -4.5929 -21.8766 2.0717 0.0000 0.0000 0.0000 0.0000 -0.0000 0.0000 3.2416 4.5850 -34.6994 14.4977 0.0000 0.0000 -14.0373 -2.2552 3.5077 6.7912 0.0000 0.0000 2.7865 -2.8901 7.7542 12.4842 0.0000 0.0000 -9.9619 9.7182 5.5501 -1.4778 0.0000 -0.0000
 0.2922 -9.6121 38.0865 4.5229 1.1028 -175.7967 1.4460 -0.0570 -0.5689 0.6818 0.0118 -0.1067 0.5327 -1.3818 -0.9017 -0.2879 -0.0547 0.2420 3.2599 0.2281 -1.6623 -2.6038 1.0309 -1.4352 -3.4029 13.8949 1.5112 -2.4018 6.0430 -0.7263 0.0000 0.0000 13.4556 -1.7217 25.4122 -1.1110 -0.0000 0.0000 0.0000 -0.0000 -0.0000 -0.0000 -10.0273 -9.5128 -5.6650 6.3807 3.1671 0.6529 -0.0000 -0.0000 -14.4718 -4.5902 -21.8764 2.0670 0.0000 -0.0000 -0.0000 0.0000 0.0000 0.0000 3.2474 4.5672 -34.7659 14.4425 0.0000 0.0000 -13.9936 -2.2819 3.6035 6.7899 0.0000 0.0000 2.7842 -2.9012 7.8096 12.4690 0.0000 0.0000 -9.9537 9.7016 5.5513 -1.4689 0.0000 -0.0000
